<svg version="1.1" viewBox="0.0 0.0 722.4146981627297 724.1391076115485" fill="none" stroke="none" stroke-linecap="square" stroke-miterlimit="10" xmlns:xlink="http://www.w3.org/1999/xlink" xmlns="http://www.w3.org/2000/svg"><clipPath id="p.0"><path d="m0 0l722.4147 0l0 724.1391l-722.4147 0l0 -724.1391z" clip-rule="nonzero"/></clipPath><g clip-path="url(#p.0)"><path fill="#000000" fill-opacity="0.0" d="m0 0l722.4147 0l0 724.1391l-722.4147 0z" fill-rule="evenodd"/><path fill="#012a3a" d="m-0.005249344 0.7480315l722.4252 0l0 722.6456l-722.4252 0z" fill-rule="evenodd"/><defs><linearGradient id="p.1" gradientUnits="userSpaceOnUse" gradientTransform="matrix(-11.290376671914839 -3.838782529137215 3.838782529137215 -11.290376671914839 0.0 0.0)" spreadMethod="pad" x1="-28.158061046601443" y1="3.031748773589373" x2="-28.157937242729133" y2="-8.258627897646685"><stop offset="0.0" stop-color="#5ed4f2"/><stop offset="1.0" stop-color="#a7e9fa"/></linearGradient></defs><path fill="url(#p.1)" d="m576.1611 299.91974l-289.94904 -98.584045c32.026886 10.8892975 67.691925 -8.818008 79.660065 -44.017487c11.96814 -35.199493 -4.2926636 -72.56183 -36.31955 -83.451126l289.94904 98.58406l0 0c32.026855 10.8892975 48.28766 48.251633 36.31952 83.45111c-11.96814 35.199493 -47.63318 54.9068 -79.660034 44.017487z" fill-rule="evenodd"/><defs><linearGradient id="p.2" gradientUnits="userSpaceOnUse" gradientTransform="matrix(7.255513969252447 -22.468824075505353 -22.468824075505353 -7.255513969252447 0.0 0.0)" spreadMethod="pad" x1="1.369997151043916" y1="-28.93334784832828" x2="-21.098826923868245" y2="-28.93351111748644"><stop offset="0.0" stop-color="#dcf4fa"/><stop offset="1.0" stop-color="#5ed4f2"/></linearGradient></defs><path fill="url(#p.2)" d="m444.74738 667.114c234.80316 -107.9577 -73.58261 -391.30905 161.22058 -499.26672l-324.11035 -110.81987c-234.80319 107.95767 73.58261 391.30905 -161.22058 499.26672z" fill-rule="evenodd"/><defs><linearGradient id="p.3" gradientUnits="userSpaceOnUse" gradientTransform="matrix(11.414115585990125 3.7747603042193507 -3.7747603042193507 11.414115585990125 0.0 0.0)" spreadMethod="pad" x1="17.51891430984405" y1="29.658780494406912" x2="17.518873374728745" y2="41.07289608032363"><stop offset="0.0" stop-color="#dcf4fa"/><stop offset="1.0" stop-color="#a7e9fa"/></linearGradient></defs><path fill="url(#p.3)" d="m150.25085 425.2442l311.21738 102.92267c-34.37613 -11.36853 -71.888245 8.579834 -83.785706 44.55591c-11.89743 35.976074 6.3251343 74.356445 40.701263 85.724976l-311.2174 -102.92267l0 0c-34.37612 -11.36853 -52.598694 -49.7489 -40.70125 -85.724976c11.897446 -35.976074 49.409584 -55.92444 83.78571 -44.55591z" fill-rule="evenodd"/><path fill="#012a3a" d="m-35.70341 372.90945l174.70218 -211.62206l403.09308 211.62206z" fill-rule="evenodd"/><defs><linearGradient id="p.4" gradientUnits="userSpaceOnUse" gradientTransform="matrix(19.0498960636466 0.0 0.0 19.0498960636466 0.0 0.0)" spreadMethod="pad" x1="21.40804920101269" y1="11.64547793939454" x2="2.358153137864336" y2="11.64534016058949"><stop offset="0.0" stop-color="#5ed4f2"/><stop offset="1.0" stop-color="#dcf4fa"/></linearGradient></defs><path fill="url(#p.4)" d="m44.922573 342.85303l107.769714 -121.00789l255.12793 121.00789z" fill-rule="evenodd"/></g></svg>